:FULLY-SPECIFIED
:FORCE-ALL-JOINTS-BE-3DOF
:DEGREES
1
root 6.24314 16.836 -28.1378 9.0217 -2.52979 -3.05774
lfemur -20.3712 2.30257 -19.9954
ltibia 35.927 0 0
lfoot -38.654 3.93715 0
ltoes 38.9541 0 0
rfemur -19.4747 0.22019 19.5256
rtibia 36.0342 0 0
rfoot -30.3779 -10.4967 0
rtoes 21.4483 0 0
lowerback -2.05144 3.66971 -5.03766
upperback -2.66728 5.00355 3.49279
thorax -2.36397 2.67023 6.42441
lowerneck -9.84699 -2.36864 1.94815
upperneck -1.37933 -3.32542 -1.65382
head 1.16433 -1.69823 -0.975663
lclavicle -1.65488e-14 -3.69739e-14 0
lhumerus -41.7253 -10.8128 99.8312
lradius 34.5094 0 0
lwrist 2.17521 0 0
lhand -10.5949 9.65639 0
lfingers 7.12502 0 0
lthumb 15.4107 39.062 0
rclavicle -1.65488e-14 -3.69739e-14 0
rhumerus -43.273 -4.86223 -84.2703
rradius 40.4763 0 0
rwrist 9.89469 0 0
rhand -23.7965 -22.476 0
rfingers 7.12502 0 0
rthumb 2.67393 -52.439 0
2
root 6.23861 16.8376 -28.136 9.03895 -2.51656 -3.04524
lfemur -20.3602 2.28806 -19.9896
ltibia 35.8812 -0 0
lfoot -38.6053 3.94288 8.64842e-05
ltoes 38.9224 -0 0
rfemur -19.4089 0.374153 19.5241
rtibia 35.9085 -0 0
rfoot -30.3171 -10.6763 -0.00341058
rtoes 21.3394 -0 0
lowerback -2.11836 3.64449 -4.96433
upperback -2.65331 4.97104 3.44862
thorax -2.29856 2.64868 6.34206
lowerneck -9.84348 -2.35451 1.9566
upperneck -1.40417 -3.30835 -1.61591
head 1.15642 -1.68899 -0.964222
lclavicle -1.40999e-14 -3.55415e-14 -1.09212e-30
lhumerus -41.7245 -10.8322 99.7687
lradius 34.5501 -0 0
lwrist 2.21921 0 0
lhand -10.6094 9.54011 0.000514745
lfingers 7.12502 -0 0
lthumb 15.3967 38.9468 0.000491547
rclavicle -1.40999e-14 -3.55415e-14 -1.09212e-30
rhumerus -43.2221 -4.86804 -84.3499
rradius 40.4597 -0 0
rwrist 9.91386 0 0
rhand -23.8818 -22.4064 -0.00186017
rfingers 7.12502 -0 0
rthumb 2.5915 -52.3699 -0.00178502
3
root 6.23332 16.8395 -28.1337 9.05924 -2.50118 -3.03089
lfemur -20.3459 2.27095 -19.9824
ltibia 35.8255 -0 0
lfoot -38.5483 3.94981 0.000178557
ltoes 38.8878 -0 0
rfemur -19.3284 0.562655 19.5228
rtibia 35.7559 -0 0
rfoot -30.2441 -10.8942 -0.00717826
rtoes 21.217 -0 0
lowerback -2.19855 3.61466 -4.87789
upperback -2.63672 4.93246 3.39732
thorax -2.22044 2.62327 6.24588
lowerneck -9.8395 -2.33772 1.9658
upperneck -1.43343 -3.28793 -1.57193
head 1.14712 -1.67798 -0.950804
lclavicle -1.09702e-14 -3.37679e-14 -2.40343e-30
lhumerus -41.7239 -10.8533 99.694
lradius 34.5927 -0 0
lwrist 2.26843 0 0
lhand -10.626 9.4007 0.00102704
lfingers 7.12502 -0 0
lthumb 15.3808 38.8086 0.000981374
rclavicle -1.09702e-14 -3.37679e-14 -2.40343e-30
rhumerus -43.1616 -4.87494 -84.4433
rradius 40.4407 -0 0
rwrist 9.93701 0 0
rhand -23.987 -22.3202 -0.00402911
rfingers 7.12502 -0 0
rthumb 2.48995 -52.2842 -0.00386647
4
root 6.22731 16.8417 -28.1311 9.08231 -2.48383 -3.01482
lfemur -20.3287 2.25147 -19.974
ltibia 35.761 -0 0
lfoot -38.4836 3.95783 0.000272442
ltoes 38.8502 -0 0
rfemur -19.2347 0.78209 19.5217
rtibia 35.5791 -0 0
rfoot -30.1601 -11.1465 -0.0111195
rtoes 21.0817 -0 0
lowerback -2.29077 3.5807 -4.77943
upperback -2.61774 4.88836 3.33943
thorax -2.13078 2.5944 6.13697
lowerneck -9.83507 -2.3185 1.97576
upperneck -1.46673 -3.26449 -1.52233
head 1.13657 -1.66534 -0.935573
lclavicle -7.23993e-15 -3.16902e-14 -3.84388e-30
lhumerus -41.7234 -10.8762 99.608
lradius 34.6377 -0 0
lwrist 2.32266 0 0
lhand -10.6445 9.24036 0.00152257
lfingers 7.12502 -0 0
lthumb 15.3629 38.6496 0.00145569
rclavicle -7.23993e-15 -3.16902e-14 -3.84388e-30
rhumerus -43.0924 -4.88278 -84.5492
rradius 40.4196 -0 0
rwrist 9.96374 0 0
rhand -24.1098 -22.2192 -0.00637515
rfingers 7.12502 -0 0
rthumb 2.37131 -52.1838 -0.00611794
